<svg width="55" height="54" viewBox="0 0 55 54" fill="none" xmlns="http://www.w3.org/2000/svg">
<path d="M17.8466 42.648L7.00002 45L9.41082 34.418C7.82316 31.5208 6.99495 28.2853 7.00002 25C7.00002 13.954 16.1779 5 27.5 5C38.8222 5 48 13.954 48 25C48 36.046 38.8222 45 27.5 45C24.1326 45.0049 20.8162 44.1969 17.8466 42.648ZM18.4411 38.422L19.7797 39.122C22.1547 40.3603 24.8071 41.0055 27.5 41C30.7436 41 33.9144 40.0616 36.6114 38.3035C39.3083 36.5454 41.4104 34.0465 42.6516 31.1229C43.8929 28.1993 44.2177 24.9822 43.5849 21.8785C42.9521 18.7749 41.3901 15.9239 39.0966 13.6863C36.803 11.4486 33.8808 9.9248 30.6995 9.30743C27.5182 8.69007 24.2207 9.00692 21.224 10.2179C18.2273 11.4289 15.666 13.4797 13.8639 16.1109C12.0619 18.7421 11.1 21.8355 11.1 25C11.1 27.668 11.7663 30.236 13.027 32.532L13.7425 33.838L12.3997 39.732L18.4411 38.422Z" fill="black"/>
<path d="M17.8466 42.648L7.00002 45L9.41082 34.418C7.82316 31.5208 6.99495 28.2853 7.00002 25C7.00002 13.954 16.1779 5 27.5 5C38.8222 5 48 13.954 48 25C48 36.046 38.8222 45 27.5 45C24.1326 45.0049 20.8162 44.1969 17.8466 42.648ZM18.4411 38.422L19.7797 39.122C22.1547 40.3603 24.8071 41.0055 27.5 41C30.7436 41 33.9144 40.0616 36.6114 38.3035C39.3083 36.5454 41.4104 34.0465 42.6516 31.1229C43.8929 28.1993 44.2177 24.9822 43.5849 21.8785C42.9521 18.7749 41.3901 15.9239 39.0966 13.6863C36.803 11.4486 33.8808 9.9248 30.6995 9.30743C27.5182 8.69007 24.2207 9.00692 21.224 10.2179C18.2273 11.4289 15.666 13.4797 13.8639 16.1109C12.0619 18.7421 11.1 21.8355 11.1 25C11.1 27.668 11.7663 30.236 13.027 32.532L13.7425 33.838L12.3997 39.732L18.4411 38.422Z" fill="black"/>
<path d="M21.35 25H17.25C17.25 27.6522 18.3299 30.1957 20.2522 32.0711C22.1744 33.9464 24.7815 35 27.5 35C30.2185 35 32.8256 33.9464 34.7478 32.0711C36.6701 30.1957 37.75 27.6522 37.75 25H33.65C33.65 26.5913 33.002 28.1174 31.8487 29.2426C30.6954 30.3679 29.1311 31 27.5 31C25.8689 31 24.3046 30.3679 23.1513 29.2426C21.9979 28.1174 21.35 26.5913 21.35 25Z" fill="#A88768"/>
</svg>
